<svg width="599" height="546" viewBox="0 0 599 546" fill="none" xmlns="http://www.w3.org/2000/svg">
<g clip-path="url(#clip0_1879_33134)">
<path d="M280.635 546.063H8.47851C4.04309 546.063 0.433594 542.479 0.433594 538.071V7.92089C0.433594 3.51509 4.04309 -0.0703125 8.47851 -0.0703125H280.635C285.069 -0.0703125 288.678 3.51509 288.678 7.92089V538.071C288.678 542.479 285.069 546.063 280.635 546.063ZM8.47851 0.281087C4.23618 0.281087 0.785947 3.70829 0.785947 7.92229V538.073C0.785947 542.287 4.23618 545.714 8.47851 545.714H280.635C284.875 545.714 288.326 542.287 288.326 538.073V7.92089C288.326 3.70829 284.875 0.279687 280.635 0.279687L8.47851 0.281087Z" fill="#EBEBEB"/>
<path d="M585.485 546.063H313.329C308.895 546.063 305.285 542.479 305.285 538.071V7.92089C305.285 3.51509 308.895 -0.0703125 313.329 -0.0703125H585.485C589.922 -0.0703125 593.53 3.51509 593.53 7.92089V538.071C593.53 542.479 589.92 546.063 585.485 546.063ZM313.329 0.281087C309.088 0.281087 305.638 3.70829 305.638 7.92229V538.073C305.638 542.287 309.088 545.714 313.329 545.714H585.485C589.727 545.714 593.177 542.287 593.177 538.073V7.92089C593.177 3.70829 589.727 0.279687 585.485 0.279687L313.329 0.281087Z" fill="#EBEBEB"/>
<path d="M103.969 158.539L106.248 163.125L111.343 163.862L107.656 167.432L108.527 172.473L103.969 170.093L99.4112 172.473L100.282 167.432L96.5938 163.862L101.69 163.125L103.969 158.539Z" fill="#EBEBEB"/>
<path d="M560.125 374.469L562.404 379.055L567.5 379.792L563.813 383.362L564.684 388.403L560.125 386.023L555.567 388.403L556.437 383.362L552.75 379.792L557.846 379.055L560.125 374.469Z" fill="#F5F5F5"/>
<path d="M469.774 507.586L472.053 512.172L477.149 512.907L473.461 516.479L474.332 521.52L469.774 519.14L465.216 521.52L466.087 516.479L462.398 512.907L467.495 512.172L469.774 507.586Z" fill="#F5F5F5"/>
<path d="M263.077 77.2098L263.923 78.9122L265.814 79.1852C266.286 79.2538 266.475 79.8292 266.133 80.161L264.764 81.4868L265.087 83.3586C265.167 83.8262 264.674 84.1818 264.252 83.962L262.56 83.0786L260.867 83.962C260.444 84.1832 259.951 83.8262 260.033 83.3586L260.355 81.4868L258.987 80.161C258.646 79.8306 258.833 79.2538 259.305 79.1852L261.197 78.9122L262.042 77.2098C262.255 76.7842 262.866 76.7842 263.077 77.2098Z" fill="#EBEBEB"/>
<path d="M30.2879 485.804L31.1335 487.506L33.025 487.779C33.4971 487.848 33.686 488.423 33.3435 488.755L31.975 490.081L32.2977 491.952C32.3781 492.42 31.8848 492.776 31.4634 492.556L29.7706 491.672L28.0779 492.556C27.6551 492.776 27.1618 492.42 27.2436 491.952L27.5663 490.081L26.1978 488.755C25.8567 488.424 26.0442 487.848 26.5163 487.779L28.4077 487.506L29.2534 485.804C29.4662 485.378 30.0765 485.378 30.2879 485.804Z" fill="#F5F5F5"/>
<path d="M68.3127 59.2176L69.1584 60.92L71.0498 61.193C71.522 61.2616 71.7108 61.837 71.3684 62.1688L69.9998 63.4946L70.3226 65.3664C70.4029 65.834 69.9096 66.1896 69.4868 65.9684L67.7941 65.085L66.1028 65.9684C65.68 66.1896 65.1867 65.8326 65.267 65.3664L65.5898 63.4946L64.2212 62.1688C63.8801 61.8384 64.0676 61.2616 64.5398 61.193L66.4312 60.92L67.2768 59.2176C67.4911 58.792 68.1013 58.792 68.3127 59.2176Z" fill="#EBEBEB"/>
<path d="M66.0218 396.639C66.0218 397.665 65.1846 398.497 64.1515 398.497C63.1184 398.497 62.2812 397.665 62.2812 396.639C62.2812 395.613 63.1184 394.781 64.1515 394.781C65.1832 394.781 66.0218 395.613 66.0218 396.639Z" fill="#EBEBEB"/>
<path d="M333.162 163.647C333.162 164.673 332.325 165.505 331.292 165.505C330.259 165.505 329.422 164.673 329.422 163.647C329.422 162.621 330.259 161.789 331.292 161.789C332.325 161.789 333.162 162.621 333.162 163.647Z" fill="#EBEBEB"/>
<path d="M235.963 60.7562C235.963 61.7824 235.126 62.614 234.093 62.614C233.06 62.614 232.223 61.7824 232.223 60.7562C232.223 59.73 233.06 58.8984 234.093 58.8984C235.126 58.8984 235.963 59.7314 235.963 60.7562Z" fill="#F5F5F5"/>
<path d="M238.971 514.495C244.538 513.189 247.985 507.649 246.67 502.119C245.356 496.59 239.778 493.166 234.212 494.472C228.645 495.778 225.198 501.318 226.513 506.847C227.827 512.377 233.405 515.801 238.971 514.495Z" fill="#F0F0F0"/>
<path d="M232.988 498.523C230.789 498.523 228.746 499.223 227.082 500.427C226.533 501.687 226.223 503.073 226.223 504.529C226.223 510.213 230.86 514.805 236.582 514.805C238.513 514.805 240.331 514.273 241.881 513.351C241.867 513.337 241.867 513.337 241.881 513.337C242.656 511.909 243.093 510.285 243.093 508.549C243.093 503.017 238.569 498.523 232.988 498.523Z" fill="#E6E6E6"/>
<path d="M152.774 325.706H67.0039V287.241L152.774 185.969H193.809V289.422H215.077V325.706H193.809V357.166H152.774V325.706ZM152.774 289.422V236.449L107.453 289.422H152.774Z" fill="#407BFF"/>
<path d="M229.758 272.314C229.758 240.318 235.555 217.929 247.154 205.145C258.752 192.361 276.416 185.969 300.154 185.969C311.557 185.969 320.921 187.367 328.242 190.16C335.562 192.955 341.535 196.591 346.158 201.068C350.781 205.546 354.423 210.253 357.081 215.191C359.741 220.127 361.879 225.888 363.497 232.473C366.655 245.026 368.235 258.116 368.235 271.741C368.235 302.282 363.033 324.636 352.63 338.796C342.226 352.958 324.31 360.036 298.88 360.036C284.622 360.036 273.101 357.777 264.318 353.262C255.532 348.747 248.325 342.125 242.702 333.399C238.615 327.199 235.436 318.721 233.166 307.966C230.892 297.211 229.758 285.328 229.758 272.314ZM276.457 272.429C276.457 293.863 278.364 308.502 282.178 316.349C285.993 324.195 291.522 328.118 298.765 328.118C303.543 328.118 307.686 326.453 311.192 323.123C314.699 319.793 317.279 314.532 318.938 307.336C320.594 300.142 321.423 288.926 321.423 273.693C321.423 251.343 319.516 236.32 315.702 228.627C311.887 220.932 306.166 217.087 298.536 217.087C290.752 217.087 285.127 221.011 281.658 228.856C278.191 236.702 276.457 251.227 276.457 272.429Z" fill="#407BFF"/>
<path d="M468.571 325.706H382.801V287.241L468.571 185.969H509.606V289.422H530.874V325.706H509.606V357.166H468.571V325.706ZM468.571 289.422V236.449L423.251 289.422H468.571Z" fill="#407BFF"/>
<g opacity="0.3">
<path d="M227.855 126.861C227.855 128.303 226.678 129.472 225.226 129.472C223.775 129.472 222.598 128.303 222.598 126.861C222.598 125.419 223.775 124.25 225.226 124.25C226.678 124.25 227.855 125.419 227.855 126.861Z" fill="#407BFF"/>
<path d="M47.4701 227.431C48.4999 227.431 49.3348 226.602 49.3348 225.579C49.3348 224.556 48.4999 223.727 47.4701 223.727C46.4403 223.727 45.6055 224.556 45.6055 225.579C45.6055 226.602 46.4403 227.431 47.4701 227.431Z" fill="#407BFF"/>
<path d="M354.848 497.316C356.321 497.316 357.516 496.129 357.516 494.666C357.516 493.202 356.321 492.016 354.848 492.016C353.374 492.016 352.18 493.202 352.18 494.666C352.18 496.129 353.374 497.316 354.848 497.316Z" fill="#407BFF"/>
<path d="M418.896 389.65C419.926 389.65 420.761 388.82 420.761 387.798C420.761 386.775 419.926 385.945 418.896 385.945C417.866 385.945 417.031 386.775 417.031 387.798C417.031 388.82 417.866 389.65 418.896 389.65Z" fill="#407BFF"/>
<path d="M542.468 56.8678C542.468 57.8912 541.633 58.72 540.603 58.72C539.573 58.72 538.738 57.8912 538.738 56.8678C538.738 55.8444 539.573 55.0156 540.603 55.0156C541.633 55.0156 542.468 55.8444 542.468 56.8678Z" fill="#407BFF"/>
<path d="M188.112 19.5475C188.112 20.5709 187.278 21.3997 186.247 21.3997C185.217 21.3997 184.383 20.5709 184.383 19.5475C184.383 18.5241 185.217 17.6953 186.247 17.6953C187.278 17.6953 188.112 18.5241 188.112 19.5475Z" fill="#407BFF"/>
<path d="M336.017 116.572C337.047 116.572 337.882 115.742 337.882 114.719C337.882 113.696 337.047 112.867 336.017 112.867C334.987 112.867 334.152 113.696 334.152 114.719C334.152 115.742 334.987 116.572 336.017 116.572Z" fill="#407BFF"/>
</g>
<path d="M143.685 116.582C160.74 116.582 174.565 102.849 174.565 85.9084C174.565 68.9676 160.74 55.2344 143.685 55.2344C126.63 55.2344 112.805 68.9676 112.805 85.9084C112.805 102.849 126.63 116.582 143.685 116.582Z" fill="#407BFF"/>
<path opacity="0.7" d="M143.685 116.582C160.74 116.582 174.565 102.849 174.565 85.9084C174.565 68.9676 160.74 55.2344 143.685 55.2344C126.63 55.2344 112.805 68.9676 112.805 85.9084C112.805 102.849 126.63 116.582 143.685 116.582Z" fill="white"/>
<path opacity="0.2" d="M133.04 62.7656C128.711 62.7656 124.603 63.6546 120.861 65.2436C115.857 70.6938 112.805 77.9528 112.805 85.9104C112.805 102.846 126.627 116.576 143.676 116.576C148.019 116.576 152.157 115.687 155.914 114.084C155.914 114.084 155.914 114.084 155.914 114.07C160.888 108.618 163.925 101.389 163.925 93.4466C163.927 76.4954 150.105 62.7656 133.04 62.7656Z" fill="#407BFF"/>
<path opacity="0.2" d="M129.974 70.8745C129.974 72.4229 128.71 73.6787 127.151 73.6787C125.592 73.6787 124.328 72.4229 124.328 70.8745C124.328 69.3261 125.592 68.0703 127.151 68.0703C128.71 68.0703 129.974 69.3261 129.974 70.8745Z" fill="#407BFF"/>
<path opacity="0.2" d="M163.177 68.0698C163.177 69.6182 161.913 70.874 160.354 70.874C158.796 70.874 157.531 69.6182 157.531 68.0698C157.531 66.5214 158.796 65.2656 160.354 65.2656C161.913 65.267 163.177 66.5214 163.177 68.0698Z" fill="#407BFF"/>
<path opacity="0.2" d="M157.533 88.0658C157.533 90.5998 155.465 92.655 152.913 92.655C150.362 92.655 148.293 90.5998 148.293 88.0658C148.293 85.5318 150.361 83.4766 152.913 83.4766C155.464 83.4766 157.533 85.5318 157.533 88.0658Z" fill="#407BFF"/>
<path opacity="0.2" d="M142.853 101.149C142.853 104.537 140.088 107.282 136.679 107.282C133.268 107.282 130.504 104.536 130.504 101.149C130.504 97.761 133.269 95.0156 136.679 95.0156C140.088 95.0156 142.853 97.7624 142.853 101.149Z" fill="#407BFF"/>
<path d="M509.672 455.988C513.111 441.521 504.093 427.024 489.528 423.608C474.964 420.192 460.369 429.15 456.93 443.617C453.491 458.085 462.51 472.582 477.074 475.998C491.639 479.414 506.233 470.455 509.672 455.988Z" fill="#407BFF"/>
<path opacity="0.3" d="M509.672 455.988C513.111 441.521 504.093 427.024 489.528 423.608C474.964 420.192 460.369 429.15 456.93 443.617C453.491 458.085 462.51 472.582 477.074 475.998C491.639 479.414 506.233 470.455 509.672 455.988Z" fill="white"/>
<path opacity="0.4" d="M500.411 428.879C497.946 428.136 495.32 427.742 492.605 427.742C477.639 427.742 465.504 439.796 465.504 454.661C465.504 463.087 469.392 470.592 475.497 475.533C477.962 476.276 480.587 476.669 483.303 476.669C498.27 476.669 510.404 464.615 510.404 449.75C510.404 441.326 506.515 433.806 500.411 428.879Z" fill="#407BFF"/>
<path d="M457.417 457.73C428.476 471.257 450.066 481.683 490.837 467.128C528.587 453.652 542.939 436.652 509.233 441.92C510.972 449.071 463.692 467.371 457.417 457.73Z" fill="#407BFF"/>
<path opacity="0.2" d="M500.074 185.961C462.175 211.399 413.113 244.943 399.569 325.695H396.68C409.858 245.923 457.129 211.497 495.043 185.961H500.074Z" fill="black"/>
<path d="M304.056 438.577C280.138 438.578 256.405 427.85 244.88 410.316C237.758 399.482 229.489 376.786 254.119 346.507L256.312 348.268C238.889 369.687 235.667 391.178 247.241 408.786C261.326 430.219 294.591 440.995 322.968 433.325C352.042 425.467 369.693 400.346 371.397 364.406C377.225 241.476 442.973 203.609 490.98 175.959C520.806 158.781 542.356 146.369 537.619 120.186C536.962 116.553 535.504 114.043 533.161 112.513C527.026 108.497 515.046 111.272 501.176 114.484C473.966 120.78 436.701 129.404 414.501 91.8962L416.931 90.4766C438.081 126.209 472.711 118.197 500.536 111.755C515.039 108.401 527.564 105.501 534.711 110.172C537.735 112.149 539.594 115.262 540.394 119.69C545.481 147.805 522.054 161.298 492.394 178.381C444.947 205.708 379.968 243.133 374.212 364.536C372.447 401.771 354.039 427.828 323.707 436.026C317.315 437.754 310.676 438.575 304.056 438.577Z" fill="#407BFF"/>
<path opacity="0.2" d="M304.056 438.577C280.138 438.578 256.405 427.85 244.88 410.316C237.758 399.482 229.489 376.786 254.119 346.507L256.312 348.268C238.889 369.687 235.667 391.178 247.241 408.786C261.326 430.219 294.591 440.995 322.968 433.325C352.042 425.467 369.693 400.346 371.397 364.406C377.225 241.476 442.973 203.609 490.98 175.959C520.806 158.781 542.356 146.369 537.619 120.186C536.962 116.553 535.504 114.043 533.161 112.513C527.026 108.497 515.046 111.272 501.176 114.484C473.966 120.78 436.701 129.404 414.501 91.8962L416.931 90.4766C438.081 126.209 472.711 118.197 500.536 111.755C515.039 108.401 527.564 105.501 534.711 110.172C537.735 112.149 539.594 115.262 540.394 119.69C545.481 147.805 522.054 161.298 492.394 178.381C444.947 205.708 379.968 243.133 374.212 364.536C372.447 401.771 354.039 427.828 323.707 436.026C317.315 437.754 310.676 438.575 304.056 438.577Z" fill="white"/>
<path d="M385.434 58.7336C395.095 58.5586 404.576 61.7212 404.576 61.7212C404.576 61.7212 420.03 88.0006 421.915 94.015C421.265 99.951 411.182 109.682 411.182 109.682L385.434 58.7336Z" fill="#407BFF"/>
<path opacity="0.3" d="M385.434 58.7336C395.095 58.5586 404.576 61.7212 404.576 61.7212C404.576 61.7212 420.03 88.0006 421.915 94.015C421.265 99.951 411.182 109.682 411.182 109.682L385.434 58.7336Z" fill="white"/>
<path d="M431.354 186.387C425.525 179.04 419.801 171.556 415.063 163.448C413.879 161.422 412.757 159.359 411.696 157.267C411.092 156.079 410.509 154.88 409.942 153.673C409.448 152.619 408.355 151.067 408.245 149.916C406.553 132.175 412.667 119.116 406.796 104.875L383.582 113.887C383.582 113.887 385.557 139.258 390.062 154.435C392.859 163.851 399.188 172.004 405.288 179.547C407.197 181.907 409.036 184.321 410.94 186.684C412.743 188.921 414.762 190.974 416.569 193.2C419.313 196.578 420.227 199.802 418.141 203.785C418.029 203.998 417.912 204.209 417.793 204.419C417.201 205.457 419.972 206.633 421.712 204.449C424.59 200.835 424.138 201.058 426.592 197.976C428.081 196.106 429.792 194.086 431.269 192.33C432.713 190.618 432.745 188.14 431.354 186.387Z" fill="#407BFF"/>
<path opacity="0.7" d="M431.354 186.387C425.525 179.04 419.801 171.556 415.063 163.448C413.879 161.422 412.757 159.359 411.696 157.267C411.092 156.079 410.509 154.88 409.942 153.673C409.448 152.619 408.355 151.067 408.245 149.916C406.553 132.175 412.667 119.116 406.796 104.875L383.582 113.887C383.582 113.887 385.557 139.258 390.062 154.435C392.859 163.851 399.188 172.004 405.288 179.547C407.197 181.907 409.036 184.321 410.94 186.684C412.743 188.921 414.762 190.974 416.569 193.2C419.313 196.578 420.227 199.802 418.141 203.785C418.029 203.998 417.912 204.209 417.793 204.419C417.201 205.457 419.972 206.633 421.712 204.449C424.59 200.835 424.138 201.058 426.592 197.976C428.081 196.106 429.792 194.086 431.269 192.33C432.713 190.618 432.745 188.14 431.354 186.387Z" fill="white"/>
<path opacity="0.3" d="M425.68 179.086C422.572 182.817 416.254 187.657 413.469 189.618C414.075 190.289 414.675 190.973 415.277 191.658C421.01 187.938 425.543 183.112 427.263 181.152C426.731 180.473 426.206 179.779 425.68 179.086Z" fill="#407BFF"/>
<path opacity="0.3" d="M431.347 186.39C431.293 186.318 431.237 186.259 431.183 186.188C430.205 187.2 429.516 188.814 429.401 190.625C429.308 191.877 429.519 193.022 429.932 193.917C430.401 193.376 430.84 192.842 431.269 192.333C432.718 190.62 432.738 188.143 431.347 186.39Z" fill="#407BFF"/>
<path d="M379.914 75.5326C377.485 79.041 374.623 82.499 370.929 85.6042C369.095 87.1652 367.002 88.5778 364.703 89.7762C363.543 90.3642 362.324 90.8738 361.063 91.2952L360.111 91.599L359.804 91.6943C359.581 91.7614 359.357 91.8216 359.132 91.8748C358.706 91.97 358.279 92.0344 357.901 92.0652C356.375 92.18 355.269 91.9644 354.357 91.739C352.557 91.2518 351.355 90.6008 350.217 89.9694C349.097 89.3268 348.113 88.6688 347.181 87.9898C345.346 86.6024 343.686 85.2094 342.139 83.7227C339.024 80.7687 336.261 77.7054 333.696 74.2936C332.526 72.7382 332.848 70.536 334.414 69.3754C335.621 68.478 337.218 68.464 338.421 69.2186L338.528 69.2872C341.854 71.3844 345.21 73.5964 348.484 75.576C350.137 76.5448 351.752 77.5192 353.341 78.2781C354.121 78.67 354.887 79.027 355.577 79.2804C356.25 79.5408 356.92 79.6892 357.095 79.6542C357.169 79.65 357.081 79.5506 356.562 79.5688C356.437 79.5758 356.259 79.5926 356.079 79.6318C355.975 79.6514 355.873 79.678 355.772 79.7102C355.675 79.7424 355.813 79.6837 355.821 79.6753L356.288 79.4386C356.908 79.125 357.503 78.7331 358.106 78.3341C359.312 77.5235 360.461 76.4944 361.634 75.366C363.953 73.077 366.186 70.228 368.542 67.2656L368.573 67.225C370.986 64.1898 375.42 63.6732 378.476 66.07C381.402 68.3646 381.99 72.5212 379.914 75.5326Z" fill="#407BFF"/>
<path opacity="0.7" d="M379.914 75.5326C377.485 79.041 374.623 82.499 370.929 85.6042C369.095 87.1652 367.002 88.5778 364.703 89.7762C363.543 90.3642 362.324 90.8738 361.063 91.2952L360.111 91.599L359.804 91.6943C359.581 91.7614 359.357 91.8216 359.132 91.8748C358.706 91.97 358.279 92.0344 357.901 92.0652C356.375 92.18 355.269 91.9644 354.357 91.739C352.557 91.2518 351.355 90.6008 350.217 89.9694C349.097 89.3268 348.113 88.6688 347.181 87.9898C345.346 86.6024 343.686 85.2094 342.139 83.7227C339.024 80.7687 336.261 77.7054 333.696 74.2936C332.526 72.7382 332.848 70.536 334.414 69.3754C335.621 68.478 337.218 68.464 338.421 69.2186L338.528 69.2872C341.854 71.3844 345.21 73.5964 348.484 75.576C350.137 76.5448 351.752 77.5192 353.341 78.2781C354.121 78.67 354.887 79.027 355.577 79.2804C356.25 79.5408 356.92 79.6892 357.095 79.6542C357.169 79.65 357.081 79.5506 356.562 79.5688C356.437 79.5758 356.259 79.5926 356.079 79.6318C355.975 79.6514 355.873 79.678 355.772 79.7102C355.675 79.7424 355.813 79.6837 355.821 79.6753L356.288 79.4386C356.908 79.125 357.503 78.7331 358.106 78.3341C359.312 77.5235 360.461 76.4944 361.634 75.366C363.953 73.077 366.186 70.228 368.542 67.2656L368.573 67.225C370.986 64.1898 375.42 63.6732 378.476 66.07C381.402 68.3646 381.99 72.5212 379.914 75.5326Z" fill="white"/>
<path d="M328.39 66.3842L330.042 69.1366C330.042 69.1366 331.303 72.799 333.827 73.4766L340.669 71.2758L340.326 70.7046C340.329 70.706 340.333 70.706 340.336 70.706C339.459 69.3802 339.554 66.8238 339.863 64.6972C340.17 62.5706 339.059 62.495 338.239 63.0242C337.765 63.3294 337.43 64.2996 337.045 65.3454C336.708 64.8848 336.348 64.441 335.94 64.0378L333.85 61.97C332.948 61.0782 331.503 61.0376 330.552 61.8776L328.858 63.3728C327.995 64.1344 327.799 65.3986 328.39 66.3842Z" fill="#407BFF"/>
<path opacity="0.7" d="M328.39 66.3842L330.042 69.1366C330.042 69.1366 331.303 72.799 333.827 73.4766L340.669 71.2758L340.326 70.7046C340.329 70.706 340.333 70.706 340.336 70.706C339.459 69.3802 339.554 66.8238 339.863 64.6972C340.17 62.5706 339.059 62.495 338.239 63.0242C337.765 63.3294 337.43 64.2996 337.045 65.3454C336.708 64.8848 336.348 64.441 335.94 64.0378L333.85 61.97C332.948 61.0782 331.503 61.0376 330.552 61.8776L328.858 63.3728C327.995 64.1344 327.799 65.3986 328.39 66.3842Z" fill="white"/>
<path d="M392.363 56.3147C385.811 57.8939 376.809 61.6081 370.73 65.3699C368.575 66.7027 367.5 69.2339 368.007 71.7049C370.719 84.9209 376.906 102.624 383.585 113.885L414.749 101.08C414.963 95.6197 407.397 77.9517 399.691 60.8759C398.306 57.8043 395.655 55.5223 392.363 56.3147Z" fill="#407BFF"/>
<path opacity="0.8" d="M392.363 56.3147C385.811 57.8939 376.809 61.6081 370.73 65.3699C368.575 66.7027 367.5 69.2339 368.007 71.7049C370.719 84.9209 376.906 102.624 383.585 113.885L414.749 101.08C414.963 95.6197 407.397 77.9517 399.691 60.8759C398.306 57.8043 395.655 55.5223 392.363 56.3147Z" fill="white"/>
<path opacity="0.3" d="M404.513 71.7L398.328 69.6406C399.712 73.2344 404.717 77.79 408.236 80.4654C407.076 77.657 405.819 74.7212 404.513 71.7Z" fill="#407BFF"/>
<path d="M390.307 42.4505C387.735 37.5771 382.169 35.1243 375.486 35.6787C369.851 36.1463 364.853 41.8611 365.446 44.9495C366.038 48.0379 370.781 49.3455 371.639 50.4179L367.731 53.2319C365.786 54.6333 365.406 57.3577 366.891 59.2337C368.536 61.3085 370.701 63.4757 371.962 65.0059C382.764 64.7273 390.752 60.6337 393.63 56.6955C392.596 51.6849 392.865 47.2973 390.307 42.4505Z" fill="#407BFF"/>
<path opacity="0.8" d="M390.307 42.4505C387.735 37.5771 382.169 35.1243 375.486 35.6787C369.851 36.1463 364.853 41.8611 365.446 44.9495C366.038 48.0379 370.781 49.3455 371.639 50.4179L367.731 53.2319C365.786 54.6333 365.406 57.3577 366.891 59.2337C368.536 61.3085 370.701 63.4757 371.962 65.0059C382.764 64.7273 390.752 60.6337 393.63 56.6955C392.596 51.6849 392.865 47.2973 390.307 42.4505Z" fill="white"/>
<path d="M385.016 45.4722C387.161 50.9266 384.451 57.0754 378.96 59.2062C373.469 61.337 367.278 58.6448 365.133 53.1904C362.988 47.7374 365.699 41.5872 371.19 39.4564C376.679 37.3256 382.869 40.0192 385.016 45.4722Z" fill="#263238"/>
<path d="M476.525 171.635C476.369 167.031 476.169 167.491 476.034 163.566C475.952 161.182 475.942 158.541 475.926 156.254C475.911 154.021 474.323 152.11 472.12 151.666C470.252 151.289 468.379 150.931 466.514 150.536C464.082 150.021 461.677 149.466 459.288 148.778C457.436 148.243 455.6 147.653 453.785 147.004C451.84 146.308 449.921 145.545 448.021 144.736C445.8 143.789 443.606 142.781 441.428 141.743C438.997 140.583 436.584 139.385 434.18 138.171C424.904 122.918 424.704 112.868 414.75 101.078L393.383 110.679C393.383 110.679 409.082 138.35 419.774 150.082C425.929 156.835 435.585 159.878 444.196 162.087C450.409 163.681 456.709 164.9 463.016 166.051C465.469 166.497 468.134 166.671 470.244 168.126C471.905 169.271 472.765 171.059 473.256 172.958C473.356 173.346 473.44 173.738 473.516 174.133C473.742 175.305 476.621 174.42 476.525 171.635Z" fill="#407BFF"/>
<path opacity="0.8" d="M476.525 171.635C476.369 167.031 476.169 167.491 476.034 163.566C475.952 161.182 475.942 158.541 475.926 156.254C475.911 154.021 474.323 152.11 472.12 151.666C470.252 151.289 468.379 150.931 466.514 150.536C464.082 150.021 461.677 149.466 459.288 148.778C457.436 148.243 455.6 147.653 453.785 147.004C451.84 146.308 449.921 145.545 448.021 144.736C445.8 143.789 443.606 142.781 441.428 141.743C438.997 140.583 436.584 139.385 434.18 138.171C424.904 122.918 424.704 112.868 414.75 101.078L393.383 110.679C393.383 110.679 409.082 138.35 419.774 150.082C425.929 156.835 435.585 159.878 444.196 162.087C450.409 163.681 456.709 164.9 463.016 166.051C465.469 166.497 468.134 166.671 470.244 168.126C471.905 169.271 472.765 171.059 473.256 172.958C473.356 173.346 473.44 173.738 473.516 174.133C473.742 175.305 476.621 174.42 476.525 171.635Z" fill="white"/>
<path opacity="0.3" d="M465.689 150.36C464.848 150.177 463.994 149.989 463.144 149.789C463.21 154.623 460.928 162.973 460.09 165.503C460.979 165.669 461.881 165.84 462.771 166.008C465.244 159.365 465.633 152.333 465.689 150.36Z" fill="#407BFF"/>
<path opacity="0.3" d="M475.923 156.252C475.907 154.014 474.325 152.107 472.126 151.659C471.683 151.569 471.227 151.474 470.781 151.398C470.874 152.714 471.697 154.242 473.076 155.454C473.979 156.263 475.001 156.801 475.94 157.054C475.926 156.776 475.924 156.514 475.923 156.252Z" fill="#407BFF"/>
<path d="M383.021 45.5581C383.591 47.6805 381.2 49.9121 379.286 48.0767C377.732 46.5871 375.393 44.0923 373.483 42.9065C371.521 41.6871 374.137 39.5647 377.218 40.3879C380.095 41.1579 382.45 43.4343 383.021 45.5581Z" fill="white"/>
<path d="M383.184 113.203C382.19 113.567 384.006 115.241 384.006 115.241C384.006 115.241 403.695 108.539 415.71 101.639C415.812 100.195 414.755 99.4297 414.755 99.4297C414.755 99.4297 400.136 106.995 383.184 113.203Z" fill="#407BFF"/>
<path opacity="0.5" d="M383.184 113.203C382.19 113.567 384.006 115.241 384.006 115.241C384.006 115.241 403.695 108.539 415.71 101.639C415.812 100.195 414.755 99.4297 414.755 99.4297C414.755 99.4297 400.136 106.995 383.184 113.203Z" fill="white"/>
<path d="M397.697 55.3884C401.584 57.3386 405.243 59.4036 408.898 61.6898C410.717 62.828 412.528 63.997 414.312 65.2584C416.111 66.4946 417.885 67.798 419.665 69.2652L420.333 69.8084L421.166 70.5546C421.758 71.0726 422.192 71.55 422.628 72.026C423.085 72.5174 423.461 72.9906 423.832 73.4624C424.216 73.937 424.581 74.4088 424.91 74.8736C426.304 76.7328 427.44 78.6242 428.555 80.5002C430.721 84.304 432.597 88.1022 434.144 92.1888C434.835 94.0116 433.908 96.0444 432.071 96.7318C430.693 97.247 429.193 96.855 428.24 95.8554L428.171 95.7798C425.34 92.8006 422.624 89.6576 419.891 86.7386C417.217 83.828 414.377 80.8404 412.087 79.5412C408.888 77.5588 405.325 75.5904 401.784 73.6514L391.125 67.7742L391.098 67.7602C387.694 65.8842 386.467 61.6226 388.355 58.2416C390.2 54.9446 394.338 53.7084 397.697 55.3884Z" fill="#407BFF"/>
<path opacity="0.8" d="M397.697 55.3884C401.584 57.3386 405.243 59.4036 408.898 61.6898C410.717 62.828 412.528 63.997 414.312 65.2584C416.111 66.4946 417.885 67.798 419.665 69.2652L420.333 69.8084L421.166 70.5546C421.758 71.0726 422.192 71.55 422.628 72.026C423.085 72.5174 423.461 72.9906 423.832 73.4624C424.216 73.937 424.581 74.4088 424.91 74.8736C426.304 76.7328 427.44 78.6242 428.555 80.5002C430.721 84.304 432.597 88.1022 434.144 92.1888C434.835 94.0116 433.908 96.0444 432.071 96.7318C430.693 97.247 429.193 96.855 428.24 95.8554L428.171 95.7798C425.34 92.8006 422.624 89.6576 419.891 86.7386C417.217 83.828 414.377 80.8404 412.087 79.5412C408.888 77.5588 405.325 75.5904 401.784 73.6514L391.125 67.7742L391.098 67.7602C387.694 65.8842 386.467 61.6226 388.355 58.2416C390.2 54.9446 394.338 53.7084 397.697 55.3884Z" fill="white"/>
<path d="M437.543 99.0309L436.347 96.0559C436.347 96.0559 435.679 92.2423 433.292 91.1797L426.189 92.2885L426.437 92.9059C426.434 92.9045 426.431 92.9031 426.427 92.9031C427.084 94.3479 426.586 96.8595 425.947 98.9105C425.307 100.963 426.392 101.211 427.285 100.816C427.801 100.588 428.286 99.6819 428.83 98.7089C429.091 99.2171 429.377 99.7113 429.715 100.172L431.453 102.539C432.203 103.56 433.624 103.826 434.696 103.144L436.604 101.93C437.578 101.313 437.973 100.096 437.543 99.0309Z" fill="#407BFF"/>
<path opacity="0.8" d="M437.543 99.0309L436.347 96.0559C436.347 96.0559 435.679 92.2423 433.292 91.1797L426.189 92.2885L426.437 92.9059C426.434 92.9045 426.431 92.9031 426.427 92.9031C427.084 94.3479 426.586 96.8595 425.947 98.9105C425.307 100.963 426.392 101.211 427.285 100.816C427.801 100.588 428.286 99.6819 428.83 98.7089C429.091 99.2171 429.377 99.7113 429.715 100.172L431.453 102.539C432.203 103.56 433.624 103.826 434.696 103.144L436.604 101.93C437.578 101.313 437.973 100.096 437.543 99.0309Z" fill="white"/>
<path opacity="0.3" d="M391.744 71.4844L390.026 71.623L379.477 96.9406C380.097 96.9826 380.666 96.9308 381.193 96.802C381.193 96.802 394.949 91.7102 399.112 89.844C396.311 84.076 391.744 71.4844 391.744 71.4844Z" fill="#407BFF"/>
<path d="M372.48 78.128C373.068 82.6878 376.51 92.3786 379.478 96.9412C384.63 95.1772 393.234 91.8494 397.397 89.9832C394.594 84.2166 391.643 76.2702 390.028 71.625C385.589 71.9176 375.917 75.5366 372.48 78.128Z" fill="white"/>
<path opacity="0.3" d="M382.954 83.6001C382.379 85.5111 380.352 86.5961 378.43 86.0235C376.507 85.4509 375.413 83.4391 375.99 81.5295C376.566 79.6185 378.592 78.5335 380.514 79.1061C382.436 79.6773 383.529 81.6891 382.954 83.6001Z" fill="#407BFF"/>
<path opacity="0.6" d="M385.653 78.7807C385.464 79.4065 384.801 79.7621 384.171 79.5745C383.541 79.3869 383.183 78.7275 383.37 78.1017C383.559 77.4759 384.223 77.1203 384.853 77.3079C385.484 77.4941 385.842 78.1535 385.653 78.7807Z" fill="#407BFF"/>
<path opacity="0.6" d="M388.797 77.562C388.608 78.1878 387.944 78.5434 387.314 78.3558C386.684 78.1682 386.326 77.5088 386.515 76.883C386.704 76.2572 387.368 75.9016 387.998 76.0892C388.628 76.2768 388.986 76.9362 388.797 77.562Z" fill="#407BFF"/>
<path opacity="0.5" d="M393.231 88.4685L380.198 93.5841L379.41 91.0389L392.443 85.9219L393.231 88.4685Z" fill="#407BFF"/>
<path opacity="0.2" d="M321.303 283.038C321.021 293.594 320.232 301.7 318.935 307.328C317.272 314.524 314.693 319.788 311.184 323.12C307.688 326.452 303.545 328.118 298.767 328.118C291.522 328.118 285.983 324.198 282.178 316.344C281.558 315.07 280.994 313.614 280.473 311.99C272.425 318.864 264.927 326.368 258.035 334.432L250.551 343.196C254.596 347.27 259.19 350.616 264.321 353.262C273.101 357.77 284.616 360.038 298.88 360.038C301.388 360.038 303.812 359.968 306.166 359.828C314.792 347.144 321.937 333.508 327.448 319.2L348.378 264.992L321.303 283.038Z" fill="black"/>
<path d="M132.629 356.944C140.517 364.78 157.296 381.447 157.296 381.447L226.373 316.813C202.602 307.836 156.266 333.466 132.629 356.944Z" fill="#263238"/>
<path d="M218.648 442.39C210.76 434.554 193.98 417.887 193.98 417.887L259.049 349.273C268.086 372.884 242.285 418.911 218.648 442.39Z" fill="#263238"/>
<path d="M313.045 287.978L339.952 236.445L288.073 263.173C271.406 271.76 256.018 282.601 242.347 295.384L153.91 378.082L197.362 421.244L280.616 333.398C293.487 319.82 304.4 304.534 313.045 287.978Z" fill="#407BFF"/>
<path opacity="0.6" d="M313.045 287.978L339.952 236.445L288.073 263.173C271.406 271.76 256.018 282.601 242.347 295.384L153.91 378.082L197.362 421.244L280.616 333.398C293.487 319.82 304.4 304.534 313.045 287.978Z" fill="white"/>
<path d="M257.797 336.117C267.838 336.117 275.977 328.032 275.977 318.059C275.977 308.085 267.838 300 257.797 300C247.757 300 239.617 308.085 239.617 318.059C239.617 328.032 247.757 336.117 257.797 336.117Z" fill="white"/>
<path d="M257.798 329.651C264.247 329.651 269.475 324.458 269.475 318.052C269.475 311.646 264.247 306.453 257.798 306.453C251.349 306.453 246.121 311.646 246.121 318.052C246.121 324.458 251.349 329.651 257.798 329.651Z" fill="#407BFF"/>
<path opacity="0.3" d="M212.058 405.745L169.52 363.491L204.347 330.922L244.846 371.149L212.058 405.745Z" fill="#407BFF"/>
<path d="M142.256 395.664C110.397 398.239 99.8428 418.492 96.2432 445.419C94.4081 459.151 93.5935 473.045 81.9842 481.084C78.7623 483.315 80.3619 488.289 84.2886 488.168C127.049 486.842 146.993 466.042 149.498 457.333C148.635 462.839 147.378 467.182 145.986 470.598C144.554 474.107 148.434 477.355 151.664 475.345C163.668 467.875 178.723 454.128 179.724 431.836C170.849 419.446 142.256 395.664 142.256 395.664Z" fill="#FFC51A"/>
<path opacity="0.2" d="M142.256 395.664C110.397 398.239 99.8428 418.492 96.2432 445.419C94.4081 459.151 93.5935 473.045 81.9842 481.084C78.7623 483.315 80.3619 488.289 84.2886 488.168C127.049 486.842 146.993 466.042 149.498 457.333C148.635 462.839 147.378 467.182 145.986 470.598C144.554 474.107 148.434 477.355 151.664 475.345C163.668 467.875 178.723 454.128 179.724 431.836C170.849 419.446 142.256 395.664 142.256 395.664Z" fill="#FFC51A"/>
<path d="M184.617 441.42L133.602 390.746L160.779 384.906L190.497 414.424L184.617 441.42Z" fill="#407BFF"/>
</g>
<defs>
<clipPath id="clip0_1879_33134">
<rect width="599" height="546" fill="white"/>
</clipPath>
</defs>
</svg>
